# xmcd
#
# Track frame offsets: 
#        150
#        11277
#        24378
#        42351
#        52868
#        65910
#        77125
#        87148
#        96790
#        107948
#        118404
#        129246
#        142020
#        152777
#
# Disc length: 2165 seconds
#
# Revision: 2
# Processed by: cddbd v1.5.2PL0 Copyright (c) Steve Scherf et al.
# Submitted via: ExactAudioCopy v0.95b4
#
DISCID=b708730e
DTITLE=John Lee Hooker - Quadromania: Guitar Lovin' Man [CD3]
DYEAR=1900
DGENRE=Blues
TTITLE0=Boom, Boom
TTITLE1=I Want To Hug You
TTITLE2=House rent Boogie
TTITLE3=Wand Ad Blues
TTITLE4=I'm So Excited
TTITLE5=Hard Headed Woman
TTITLE6=I Wanna Walk
TTITLE7=Onions
TTITLE8=What Do You Say
TTITLE9=Keep Your Hands To Yourself
TTITLE10=Send Me Your Pillow
TTITLE11=She Shot Me Down
TTITLE12=I Want To Shout
TTITLE13=I'm Leaving (Baby)
EXTD=
EXTT0=
EXTT1=
EXTT2=
EXTT3=
EXTT4=
EXTT5=
EXTT6=
EXTT7=
EXTT8=
EXTT9=
EXTT10=
EXTT11=
EXTT12=
EXTT13=
PLAYORDER=
